<?xml version="1.0" encoding="utf-8"?>
<!-- Generator: Adobe Illustrator 24.1.2, SVG Export Plug-In . SVG Version: 6.00 Build 0)  -->
<svg version="1.1" xmlns="http://www.w3.org/2000/svg" xmlns:xlink="http://www.w3.org/1999/xlink" x="0px" y="0px"
	 viewBox="0 0 48 48" style="enable-background:new 0 0 48 48;" xml:space="preserve">
<style type="text/css">
	.st0{enable-background:new    ;}
	.st1{fill:#FFE500;}
	.st2{fill:none;stroke:#000000;stroke-width:0;stroke-miterlimit:100;}
</style>
<g id="Прямоугольник_1_5_" class="st0">
	<g id="Прямоугольник_1">
		<g>
			<path class="st1" d="M40.92,10.08H7.32c-0.99,0-1.8,0.81-1.8,1.8v0.24c0,0.99,0.81,1.8,1.8,1.8h33.6c0.99,0,1.8-0.81,1.8-1.8
				v-0.24C42.72,10.89,41.91,10.08,40.92,10.08z"/>
		</g>
		<g>
			<path class="st2" d="M40.92,10.08H7.32c-0.99,0-1.8,0.81-1.8,1.8v0.24c0,0.99,0.81,1.8,1.8,1.8h33.6c0.99,0,1.8-0.81,1.8-1.8
				v-0.24C42.72,10.89,41.91,10.08,40.92,10.08z"/>
		</g>
	</g>
</g>
<g id="Прямоугольник_1_4_" class="st0">
	<g id="Прямоугольник_1_1_">
		<g>
			<path class="st1" d="M40.8,21.12H7.44c-1.06,0-1.92,0.86-1.92,1.92c0,1.06,0.86,1.92,1.92,1.92H40.8c1.06,0,1.92-0.86,1.92-1.92
				C42.72,21.98,41.86,21.12,40.8,21.12z"/>
		</g>
		<g>
			<path class="st2" d="M40.8,21.12H7.44c-1.06,0-1.92,0.86-1.92,1.92c0,1.06,0.86,1.92,1.92,1.92H40.8c1.06,0,1.92-0.86,1.92-1.92
				C42.72,21.98,41.86,21.12,40.8,21.12z"/>
		</g>
	</g>
</g>
<g id="Прямоугольник_1_3_" class="st0">
	<g id="Прямоугольник_1_2_">
		<g>
			<path class="st1" d="M40.8,32.16H7.44c-1.06,0-1.92,0.86-1.92,1.92c0,1.06,0.86,1.92,1.92,1.92H40.8c1.06,0,1.92-0.86,1.92-1.92
				C42.72,33.02,41.86,32.16,40.8,32.16z"/>
		</g>
		<g>
			<path class="st2" d="M40.8,32.16H7.44c-1.06,0-1.92,0.86-1.92,1.92c0,1.06,0.86,1.92,1.92,1.92H40.8c1.06,0,1.92-0.86,1.92-1.92
				C42.72,33.02,41.86,32.16,40.8,32.16z"/>
		</g>
	</g>
</g>
</svg>
